:SAMPLES-PER-SECOND 30
:FULLY-SPECIFIED
:DEGREES
117
root  -4.43039 40.8504 -0.20446 -17.5085 -88.2476 16.1257
RightUpLeg  8.62705 -2.383 -2.20988
RightLeg  -2.5314 -21.049 0.614886
RightFoot  -2.51727 -0.311968 3.81783
RightToes  -3.10096e-008 1.75238e-005 3.56266e-009
Spine  -11.987 -0.152764 -3.13347
Spine1  12.5708 0.500094 -0.652469
HEad  -5.19639 -8.15864 17.4905
LeftShoulder1  2.2036 -4.73156 -20.3288
LeftArm  -50.5092 -29.8271 -27.1639
LeftForeArm  -39.8579 -36.2013 -10.0767
LeftHand  -0.154448 3.47504 8.59736
RightShoulder  1.97863 5.27076 15.8425
RightArm  -62.3382 30.5368 16.678
RightForeArm  -58.0601 28.1218 8.19945
RightHand  -0.623906 1.99777 -9.97337
LeftUpLeg  6.5109 1.55048 2.15931
LeftLeg  -1.92483 9.43531 -0.686277
LeftFoot  -2.25279 0.237169 -2.81482
LeftToes  4.7633e-008 1.48299e-008 1.30754e-009
118
root  -4.50529 40.8478 -0.202286 -19.8741 -88.6645 18.2565
RightUpLeg  8.89009 -2.36843 -2.18406
RightLeg  -2.39485 -20.6219 0.505639
RightFoot  -2.56035 -0.324411 4.04767
RightToes  -3.10096e-008 1.75238e-005 3.56266e-009
Spine  -12.6034 0.0704733 -3.50818
Spine1  13.3256 0.691266 -0.254307
HEad  -6.51158 -8.84301 19.637
LeftShoulder1  2.24653 -4.83383 -20.5302
LeftArm  -48.7566 -26.5182 -28.7574
LeftForeArm  -40.911 -39.0017 -11.0321
LeftHand  -0.097882 4.16309 7.80657
RightShoulder  2.11919 5.53039 16.8372
RightArm  -63.8194 29.3733 16.8117
RightForeArm  -58.6177 28.7622 8.37312
RightHand  -0.66035 1.94577 -10.6158
LeftUpLeg  6.96157 1.65213 2.23361
LeftLeg  -1.94287 9.71537 -0.691968
LeftFoot  -2.40806 0.253675 -3.05722
LeftToes  4.7633e-008 1.48299e-008 1.30754e-009
119
root  -4.57687 40.8504 -0.195514 -13.0581 -88.8561 11.443
RightUpLeg  9.078 -2.33134 -2.03476
RightLeg  -2.5852 -20.4677 0.631097
RightFoot  -2.4383 -0.323088 4.05049
RightToes  -3.10096e-008 1.75238e-005 3.56266e-009
Spine  -13.4073 0.128545 -3.86896
Spine1  14.059 0.678801 0.255186
HEad  -7.44249 -9.4174 21.5554
LeftShoulder1  2.33193 -4.90538 -21.3637
LeftArm  -46.1067 -23.7508 -29.5082
LeftForeArm  -40.6442 -42.6319 -12.3667
LeftHand  -0.107977 3.72673 6.56261
RightShoulder  2.20761 5.62631 17.6249
RightArm  -62.0289 27.9639 16.733
RightForeArm  -59.0854 30.6604 8.88525
RightHand  -0.641178 1.82879 -10.471
LeftUpLeg  7.00672 1.66084 2.36007
LeftLeg  -1.76389 9.86763 -0.52739
LeftFoot  -2.58242 0.248964 -3.01674
LeftToes  4.7633e-008 1.48299e-008 1.30754e-009
120
root  -4.63958 40.8544 -0.190358 -6.91187 -89.0303 5.37459
RightUpLeg  9.20275 -2.25816 -1.90431
RightLeg  -2.84752 -20.3879 0.741111
RightFoot  -2.30582 -0.3248 4.08894
RightToes  -3.10096e-008 1.75238e-005 3.56266e-009
Spine  -13.8632 0.165969 -4.6014
Spine1  14.2338 0.55199 1.22772
HEad  -7.83091 -9.94295 23.0622
LeftShoulder1  2.4817 -5.12631 -22.4626
LeftArm  -43.0931 -20.5858 -29.7095
LeftForeArm  -39.2673 -47.3125 -14.3193
LeftHand  -0.098967 3.50261 4.99183
RightShoulder  2.21744 5.49638 18.1227
RightArm  -58.5245 26.5184 16.7305
RightForeArm  -59.2941 33.3776 9.65372
RightHand  -0.657968 2.09723 -10.3633
LeftUpLeg  7.04463 1.7758 2.52625
LeftLeg  -1.75687 9.88728 -0.552936
LeftFoot  -2.69967 0.244916 -3.00497
LeftToes  4.7633e-008 1.48299e-008 1.30754e-009
121
root  -4.68659 40.8508 -0.18013 -3.06868 -89.174 1.62083
RightUpLeg  9.25231 -2.23086 -1.8509
RightLeg  -3.05453 -20.3376 0.833603
RightFoot  -2.30189 -0.322372 4.05356
RightToes  -3.10096e-008 1.75238e-005 3.56266e-009
Spine  -14.1988 0.0749582 -5.16229
Spine1  14.422 0.362333 1.8325
HEad  -8.25242 -9.88191 23.9561
LeftShoulder1  2.54458 -5.10887 -23.2919
LeftArm  -40.7158 -17.5793 -29.8897
LeftForeArm  -37.6453 -52.2007 -16.869
LeftHand  -0.0586352 3.77779 3.25532
RightShoulder  2.23448 5.38827 18.6546
RightArm  -55.3136 25.3833 16.9425
RightForeArm  -58.0584 36.6797 10.6535
RightHand  -0.745945 2.96757 -10.5491
LeftUpLeg  7.03894 1.80649 2.5822
LeftLeg  -1.74023 9.9828 -0.53959
LeftFoot  -2.80484 0.252521 -3.16155
LeftToes  4.7633e-008 1.48299e-008 1.30754e-009
122
root  -4.71545 40.8473 -0.166684 -3.81348 -89.5513 2.50311
RightUpLeg  9.14566 -2.16039 -1.85539
RightLeg  -3.15249 -20.055 0.805832
RightFoot  -2.3129 -0.320072 4.01247
RightToes  -3.10096e-008 1.75238e-005 3.56266e-009
Spine  -14.4026 -0.056062 -5.34598
Spine1  14.5398 0.253192 1.84267
HEad  -8.61167 -9.40645 24.5796
LeftShoulder1  2.6057 -5.25705 -23.502
LeftArm  -38.6395 -13.7492 -29.7736
LeftForeArm  -33.9911 -57.7696 -20.5692
LeftHand  -0.0584463 1.8775 1.5907
RightShoulder  2.33049 5.49465 19.485
RightArm  -52.0297 24.1319 17.1862
RightForeArm  -57.2473 40.8612 12.076
RightHand  -0.602538 2.46014 -9.11748
LeftUpLeg  7.06321 1.80156 2.54278
LeftLeg  -1.90159 10.3801 -0.597189
LeftFoot  -2.77216 0.244951 -3.06356
LeftToes  4.7633e-008 1.48299e-008 1.30754e-009
123
root  -4.74303 40.8449 -0.154703 2.37484 -89.7103 -3.56964
RightUpLeg  9.08156 -2.12344 -1.84184
RightLeg  -3.233 -19.9839 0.824551
RightFoot  -2.32897 -0.324128 4.06425
RightToes  -3.10096e-008 1.75238e-005 3.56266e-009
Spine  -14.3649 -0.467478 -6.02043
Spine1  14.3037 -0.307038 2.59932
HEad  -8.55314 -8.54852 24.3701
LeftShoulder1  2.66598 -5.34034 -23.9239
LeftArm  -36.821 -9.65759 -29.4572
LeftForeArm  -28.1771 -63.1398 -25.5613
LeftHand  -0.0533279 0.618267 1.20576
RightShoulder  2.44551 5.67538 20.2882
RightArm  -47.9665 22.5347 17.5549
RightForeArm  -54.034 46.0766 14.1592
RightHand  -0.619754 2.91036 -8.86895
LeftUpLeg  7.0492 1.66556 2.45134
LeftLeg  -2.00591 10.6991 -0.489273
LeftFoot  -2.77477 0.244916 -3.08
LeftToes  4.7633e-008 1.48299e-008 1.30754e-009
124
root  -4.77447 40.8462 -0.136504 -0.927799 -90 0
RightUpLeg  8.81658 -2.0664 -1.83093
RightLeg  -3.26664 -19.8371 0.807333
RightFoot  -2.29848 -0.323609 4.0411
RightToes  -3.10096e-008 1.75238e-005 3.56266e-009
Spine  -14.5129 -0.796251 -6.49203
Spine1  14.2242 -0.794811 3.33485
HEad  -8.70433 -7.3316 23.4168
LeftShoulder1  2.71242 -5.34174 -24.4693
LeftArm  -35.7708 -4.98823 -29.7595
LeftForeArm  -18.9132 -68.9923 -34.5417
LeftHand  -0.0216089 0.149848 0.459028
RightShoulder  2.52268 5.75633 20.9275
RightArm  -43.763 19.7677 18.4711
RightForeArm  -46.6655 53.5006 18.0153
RightHand  -0.715013 3.87591 -9.20744
LeftUpLeg  6.91866 1.64891 2.4266
LeftLeg  -2.15658 10.9995 -0.556363
LeftFoot  -2.7391 0.242495 -3.05664
LeftToes  4.7633e-008 1.48299e-008 1.30754e-009
125
root  -4.82268 40.848 -0.12471 172.567 -89.593 -173.339
RightUpLeg  8.64866 -1.98368 -1.82766
RightLeg  -3.21929 -19.4892 0.703502
RightFoot  -2.28877 -0.328016 4.09238
RightToes  -3.10096e-008 1.75238e-005 3.56266e-009
Spine  -14.1159 -1.06111 -6.3406
Spine1  13.7645 -1.02723 3.06961
HEad  -9.09308 -6.38587 22.3676
LeftShoulder1  2.61973 -5.16621 -24.0004
LeftArm  -35.2075 2.09347 -31.6228
LeftForeArm  2.69862 -75.2732 -54.7837
LeftHand  0.12486 -0.924816 -2.17233
RightShoulder  2.60943 5.77501 21.8743
RightArm  -39.7861 15.4115 20.5843
RightForeArm  -29.4574 62.6164 25.1037
RightHand  -0.646959 4.5898 -7.80355
LeftUpLeg  6.97421 1.66414 2.40744
LeftLeg  -2.34351 11.4043 -0.651207
LeftFoot  -2.71246 0.235662 -2.96207
LeftToes  4.7633e-008 1.48299e-008 1.30754e-009
126
root  -4.87342 40.8472 -0.102703 173.14 -89.1024 -173.527
RightUpLeg  8.27924 -1.92035 -1.83823
RightLeg  -3.28632 -19.0679 0.720609
RightFoot  -2.24186 -0.327881 4.07305
RightToes  -3.10096e-008 1.75238e-005 3.56266e-009
Spine  -13.5425 -1.17778 -6.6168
Spine1  12.6489 -1.28418 3.67067
HEad  -9.69949 -5.19434 20.9434
LeftShoulder1  2.63532 -5.11161 -24.391
LeftArm  -35.1301 10.2311 -34.0608
LeftForeArm  44.0726 -77.9149 -92.7071
LeftHand  0.321717 -2.71811 -4.41599
RightShoulder  2.51966 5.33566 22.2811
RightArm  -36.2063 9.82241 23.6438
RightForeArm  -2.8176 71.5427 39.3491
RightHand  -0.483692 5.81886 -5.34536
LeftUpLeg  6.77584 1.57786 2.35628
LeftLeg  -2.50421 11.986 -0.673453
LeftFoot  -2.72301 0.24147 -3.06183
LeftToes  4.7633e-008 1.48299e-008 1.30754e-009
127
root  -4.94349 40.8419 -0.0811572 177.925 -88.3598 -177.974
RightUpLeg  7.87459 -1.83858 -1.90332
RightLeg  -3.16576 -18.4387 0.566684
RightFoot  -2.32106 -0.328832 4.07232
RightToes  -3.10096e-008 1.75238e-005 3.56266e-009
Spine  -13.0531 -1.16918 -6.78584
Spine1  11.7885 -1.35546 4.05087
HEad  -10.3255 -4.04792 19.3874
LeftShoulder1  2.56252 -4.74761 -24.8773
LeftArm  -35.8159 19.8547 -37.998
LeftForeArm  88.59 -74.211 -131.996
LeftHand  0.523692 -4.33552 -5.9748
RightShoulder  2.48019 4.98944 23.0269
RightArm  -33.3272 2.92063 27.127
RightForeArm  41.9202 78.0302 75.1325
RightHand  -0.370779 7.25157 -3.73953
LeftUpLeg  6.74906 1.469 2.19979
LeftLeg  -2.77783 12.8558 -0.756581
LeftFoot  -2.72727 0.23671 -2.9949
LeftToes  4.7633e-008 1.48299e-008 1.30754e-009
128
root  -5.01321 40.8334 -0.0694384 177.781 -87.8341 -177.385
RightUpLeg  7.45524 -1.70502 -1.87621
RightLeg  -3.20846 -18.0383 0.507289
RightFoot  -2.36038 -0.328145 4.0498
RightToes  -3.10096e-008 1.75238e-005 3.56266e-009
Spine  -12.7223 -1.08983 -6.77914
Spine1  11.2412 -1.30233 4.14747
HEad  -11.688 -2.99265 18.2409
LeftShoulder1  2.38937 -4.02601 -25.5922
LeftArm  -37.335 28.765 -43.701
LeftForeArm  113.175 -67.6025 -149.825
LeftHand  0.687676 -6.38986 -6.42519
RightShoulder  2.53357 4.71709 24.7354
RightArm  -30.9005 -5.38792 30.2775
RightForeArm  99.1074 76.1494 125.936
RightHand  -0.306873 7.69461 -3.08496
LeftUpLeg  6.40118 1.32812 2.08955
LeftLeg  -2.70728 13.556 -0.678365
LeftFoot  -2.85524 0.235911 -2.9875
LeftToes  4.7633e-008 1.48299e-008 1.30754e-009
129
root  -5.06952 40.8238 -0.0545532 178.307 -87.2466 -177.609
RightUpLeg  7.09253 -1.61403 -1.892
RightLeg  -3.09259 -17.5298 0.380059
RightFoot  -2.48912 -0.331993 4.10323
RightToes  -3.10096e-008 1.75238e-005 3.56266e-009
Spine  -12.762 -0.770721 -6.67295
Spine1  11.6652 -1.03745 4.26706
HEad  -13.4876 -2.3195 16.8104
LeftShoulder1  2.23183 -3.22222 -27.076
LeftArm  -39.8031 36.4793 -50.4015
LeftForeArm  126.25 -61.3986 -157.949
LeftHand  0.881903 -7.67789 -7.43034
RightShoulder  2.63478 4.44328 27.1842
RightArm  -29.1143 -14.6727 32.6453
RightForeArm  128.934 68.9954 149.57
RightHand  -0.35211 8.73785 -3.26862
LeftUpLeg  6.21238 1.31988 2.04245
LeftLeg  -2.66615 14.1075 -0.745936
LeftFoot  -2.98965 0.230073 -2.89973
LeftToes  4.7633e-008 1.48299e-008 1.30754e-009
130
root  -5.12647 40.8136 -0.0376924 179.217 -86.7041 -178.456
RightUpLeg  7.04731 -1.57454 -1.95741
RightLeg  -3.08784 -17.0141 0.273632
RightFoot  -2.60072 -0.333431 4.12665
RightToes  -3.10096e-008 1.75238e-005 3.56266e-009
Spine  -13.7331 -0.428491 -6.74795
Spine1  13.6019 -0.842147 4.76635
HEad  -15.8489 -1.45305 15.2262
LeftShoulder1  2.20854 -2.86159 -28.6292
LeftArm  -44.0547 41.8342 -57.6685
LeftForeArm  133.535 -57.659 -161.301
LeftHand  1.04678 -8.79981 -8.14581
RightShoulder  2.71301 4.13578 29.6052
RightArm  -27.7575 -22.7572 34.9849
RightForeArm  141.959 63.0768 157.914
RightHand  -0.365242 9.40782 -3.25433
LeftUpLeg  6.34967 1.33033 1.95616
LeftLeg  -2.76182 14.6497 -0.835563
LeftFoot  -3.06484 0.221882 -2.77356
LeftToes  4.7633e-008 1.48299e-008 1.30754e-009
